<svg width="46" height="46" viewBox="0 0 46 46" fill="none" xmlns="http://www.w3.org/2000/svg">
<path d="M19.4501 31.8237C19.4501 32.1677 19.1723 32.4466 18.8296 32.4466H16.1885C15.8458 32.4466 15.5681 32.1677 15.5681 31.8237V20.7086C15.5681 20.3646 15.8458 20.0857 16.1885 20.0857H18.8296C19.1723 20.0857 19.4501 20.3646 19.4501 20.7086V31.8237ZM17.5091 19.0379C16.1234 19.0379 15 17.9101 15 16.519C15 15.1278 16.1234 14 17.5091 14C18.8948 14 20.0181 15.1278 20.0181 16.519C20.0181 17.9101 18.8948 19.0379 17.5091 19.0379ZM33.2524 31.8739C33.2524 32.1902 32.997 32.4466 32.682 32.4466H29.8478C29.5328 32.4466 29.2774 32.1902 29.2774 31.8739V26.6603C29.2774 25.8825 29.5046 23.2521 27.2528 23.2521C25.5062 23.2521 25.1519 25.0525 25.0808 25.8605V31.8739C25.0808 32.1902 24.8254 32.4466 24.5103 32.4466H21.7692C21.4542 32.4466 21.1988 32.1902 21.1988 31.8739V20.6584C21.1988 20.3422 21.4542 20.0857 21.7692 20.0857H24.5103C24.8253 20.0857 25.0808 20.3422 25.0808 20.6584C25.0808 20.9482 25.4886 21.0828 25.7012 20.8859C26.3387 20.2956 27.2534 19.8992 28.7403 19.8992C33.2784 19.8992 33.2524 24.1557 33.2524 26.4944V31.8739Z" fill="white"/>
<circle cx="23" cy="23" r="22.5" stroke="#4D92D5"/>
</svg>
