<svg width="46" height="46" viewBox="0 0 46 46" fill="none" xmlns="http://www.w3.org/2000/svg">
<path d="M33.1087 18.0106C32.7528 18.168 32.4366 17.6807 32.6139 17.3344C32.7161 17.1346 32.8025 16.926 32.8717 16.7101C32.933 16.5188 32.7247 16.3533 32.5515 16.4557C31.9122 16.8341 31.2236 17.118 30.5047 17.2995C30.463 17.31 30.42 17.3154 30.3768 17.3154C30.2458 17.3154 30.1185 17.2669 30.0184 17.1788C29.2536 16.5062 28.2698 16.1357 27.2485 16.1357C26.8066 16.1357 26.3604 16.2045 25.9223 16.34C24.5649 16.7601 23.5176 17.8774 23.189 19.2558C23.0657 19.7728 23.0323 20.2903 23.0897 20.7939C23.0963 20.8518 23.0689 20.8921 23.052 20.9111C23.0223 20.9443 22.9802 20.9633 22.9365 20.9633C22.9316 20.9633 22.9266 20.9631 22.9216 20.9626C19.9504 20.6872 17.271 19.2588 15.3771 16.9407C15.2805 16.8225 15.0953 16.837 15.0184 16.9687C14.6475 17.6036 14.4515 18.3298 14.4515 19.0687C14.4515 19.8494 14.6682 20.599 15.0623 21.2443C15.2134 21.4918 14.9982 21.818 14.7446 21.6774C14.5997 21.5971 14.4215 21.7003 14.4194 21.8656C14.3991 23.517 15.3498 24.9897 16.7834 25.6808C16.8031 25.6903 16.7969 25.7199 16.7751 25.7199C16.5407 25.7199 16.3034 25.6973 16.0698 25.6527C15.9066 25.6217 15.7696 25.7761 15.8202 25.9339C16.3218 27.4965 16.4488 30.0924 14.8077 30.0924L14.3235 30.0921C14.1743 30.0921 14.0482 30.1891 14.0102 30.3333C13.9727 30.4753 14.0417 30.6251 14.1689 30.6989C15.9189 31.7151 17.9151 32.2522 19.9425 32.2522C21.7171 32.2522 23.3771 31.9008 24.8764 31.2078C26.2509 30.5725 27.4655 29.6644 28.4864 28.5086C29.4375 27.4319 30.1813 26.189 30.6969 24.8145C31.1885 23.5042 31.4483 22.1062 31.4483 20.7714V20.7078C31.4482 20.4935 31.5454 20.2918 31.7149 20.1546C32.358 19.6335 32.9181 19.0202 33.3794 18.3316C33.5012 18.1498 33.3091 17.9219 33.1087 18.0106Z" fill="white"/>
<circle cx="23" cy="23" r="22.5" stroke="#4D92D5"/>
</svg>
