<svg width="17" height="16" viewBox="0 0 17 16" fill="none" xmlns="http://www.w3.org/2000/svg">
<path d="M8.13965 14.8599C4.53965 14.8599 1.63965 11.9599 1.63965 8.35986C1.63965 4.75986 4.53965 1.85986 8.13965 1.85986C11.7396 1.85986 14.6396 4.75986 14.6396 8.35986C14.6396 11.9599 11.7396 14.8599 8.13965 14.8599ZM8.13965 2.85986C5.13965 2.85986 2.63965 5.35986 2.63965 8.35986C2.63965 11.3599 5.13965 13.8599 8.13965 13.8599C11.1396 13.8599 13.6396 11.3599 13.6396 8.35986C13.6396 5.35986 11.1396 2.85986 8.13965 2.85986Z" fill="#4D92D5"/>
<path d="M10.4396 8.85981H9.13965C8.33965 8.85981 7.63965 8.15981 7.63965 7.35981V5.55981C7.63965 5.25981 7.83965 5.05981 8.13965 5.05981C8.43965 5.05981 8.63965 5.25981 8.63965 5.55981V7.35981C8.63965 7.65981 8.83965 7.85981 9.13965 7.85981H10.4396C10.7396 7.85981 10.9396 8.05981 10.9396 8.35981C10.9396 8.65981 10.6396 8.85981 10.4396 8.85981Z" fill="#4D92D5"/>
<path d="M15.7394 4.05984C15.5394 4.05984 15.4394 3.95984 15.3394 3.85984C14.6394 2.65984 13.6394 1.65984 12.4394 1.05984C12.2394 0.959836 12.1394 0.659836 12.2394 0.359836C12.3394 0.159836 12.6394 0.059836 12.9394 0.159836C14.2394 0.959836 15.3394 2.05984 16.1394 3.35984C16.2394 3.55984 16.2394 3.85984 15.9394 4.05984C15.9394 4.05984 15.8394 4.05984 15.7394 4.05984Z" fill="#4D92D5"/>
<path d="M0.53923 4.05981C0.43923 4.05981 0.339231 4.05981 0.239231 3.95981C0.0392311 3.85981 -0.0607697 3.45981 0.0392304 3.25981C0.83923 1.95981 1.93923 0.859808 3.23923 0.0598077C3.43923 -0.0401923 3.73923 -0.0401925 3.93923 0.259807C4.03923 0.459808 4.03923 0.759808 3.73923 0.959808C2.53923 1.65981 1.53923 2.65981 0.839231 3.75981C0.839231 3.95981 0.63923 4.05981 0.53923 4.05981Z" fill="#4D92D5"/>
<path d="M5.03945 13.5599L3.13945 15.4599C3.03945 15.5599 2.93945 15.5599 2.73945 15.5599C2.53945 15.5599 2.43945 15.5599 2.33945 15.4599C2.13945 15.2599 2.13945 14.9599 2.33945 14.7599L4.23945 12.8599L5.03945 13.5599Z" fill="#4D92D5"/>
<path d="M11.9396 12.8599L13.8396 14.7599C14.0396 14.9599 14.0396 15.2599 13.8396 15.4599C13.7396 15.5599 13.6396 15.5599 13.4396 15.5599C13.2396 15.5599 13.1396 15.5599 13.0396 15.4599L11.1396 13.5599L11.9396 12.8599Z" fill="#4D92D5"/>
</svg>
