<svg width="13" height="13" viewBox="0 0 13 13" fill="none" xmlns="http://www.w3.org/2000/svg">
<path d="M12.4922 8.9375C12.7727 8.9375 13 8.71015 13 8.42969V3.04688C13 1.92684 12.0888 1.01562 10.9688 1.01562H10.3086V0.507812C10.3086 0.227348 10.0812 0 9.80078 0C9.52032 0 9.29297 0.227348 9.29297 0.507812V1.01562H6.98242V0.507812C6.98242 0.227348 6.75507 0 6.47461 0C6.19414 0 5.9668 0.227348 5.9668 0.507812V1.01562H3.68164V0.507812C3.68164 0.227348 3.45429 0 3.17383 0C2.89336 0 2.66602 0.227348 2.66602 0.507812V1.01562H2.03125C0.911219 1.01562 0 1.92684 0 3.04688V10.9688C0 12.0888 0.911219 13 2.03125 13H10.9688C12.0888 13 13 12.0888 13 10.9688C13 10.6883 12.7727 10.4609 12.4922 10.4609C12.2117 10.4609 11.9844 10.6883 11.9844 10.9688C11.9844 11.5288 11.5288 11.9844 10.9688 11.9844H2.03125C1.47123 11.9844 1.01562 11.5288 1.01562 10.9688V3.04688C1.01562 2.48686 1.47123 2.03125 2.03125 2.03125H2.66602V2.53906C2.66602 2.81953 2.89336 3.04688 3.17383 3.04688C3.45429 3.04688 3.68164 2.81953 3.68164 2.53906V2.03125H5.9668V2.53906C5.9668 2.81953 6.19414 3.04688 6.47461 3.04688C6.75507 3.04688 6.98242 2.81953 6.98242 2.53906V2.03125H9.29297V2.53906C9.29297 2.81953 9.52032 3.04688 9.80078 3.04688C10.0812 3.04688 10.3086 2.81953 10.3086 2.53906V2.03125H10.9688C11.5288 2.03125 11.9844 2.48686 11.9844 3.04688V8.42969C11.9844 8.71015 12.2117 8.9375 12.4922 8.9375Z" fill="#D8D8D8"/>
<path d="M3.17383 5.83984C3.45429 5.83984 3.68164 5.61249 3.68164 5.33203C3.68164 5.05157 3.45429 4.82422 3.17383 4.82422C2.89337 4.82422 2.66602 5.05157 2.66602 5.33203C2.66602 5.61249 2.89337 5.83984 3.17383 5.83984Z" fill="#D8D8D8"/>
<path d="M7.5918 5.83984C7.87225 5.83984 8.09961 5.61249 8.09961 5.33203C8.09961 5.05157 7.87225 4.82422 7.5918 4.82422C7.31134 4.82422 7.08398 5.05157 7.08398 5.33203C7.08398 5.61249 7.31134 5.83984 7.5918 5.83984Z" fill="#D8D8D8"/>
<path d="M9.80078 5.83984C10.0812 5.83984 10.3086 5.61249 10.3086 5.33203C10.3086 5.05157 10.0812 4.82422 9.80078 4.82422C9.52032 4.82422 9.29297 5.05157 9.29297 5.33203C9.29297 5.61249 9.52032 5.83984 9.80078 5.83984Z" fill="#D8D8D8"/>
<path d="M3.17383 8.04883C3.45429 8.04883 3.68164 7.82147 3.68164 7.54102C3.68164 7.26056 3.45429 7.0332 3.17383 7.0332C2.89337 7.0332 2.66602 7.26056 2.66602 7.54102C2.66602 7.82147 2.89337 8.04883 3.17383 8.04883Z" fill="#D8D8D8"/>
<path d="M3.17383 10.2578C3.45429 10.2578 3.68164 10.0305 3.68164 9.75C3.68164 9.46954 3.45429 9.24219 3.17383 9.24219C2.89337 9.24219 2.66602 9.46954 2.66602 9.75C2.66602 10.0305 2.89337 10.2578 3.17383 10.2578Z" fill="#D8D8D8"/>
<path d="M5.38281 5.83984C5.66327 5.83984 5.89062 5.61249 5.89062 5.33203C5.89062 5.05157 5.66327 4.82422 5.38281 4.82422C5.10236 4.82422 4.875 5.05157 4.875 5.33203C4.875 5.61249 5.10236 5.83984 5.38281 5.83984Z" fill="#D8D8D8"/>
<path d="M5.38281 8.04883C5.66327 8.04883 5.89062 7.82147 5.89062 7.54102C5.89062 7.26056 5.66327 7.0332 5.38281 7.0332C5.10236 7.0332 4.875 7.26056 4.875 7.54102C4.875 7.82147 5.10236 8.04883 5.38281 8.04883Z" fill="#D8D8D8"/>
<path d="M5.38281 10.2578C5.66327 10.2578 5.89062 10.0305 5.89062 9.75C5.89062 9.46954 5.66327 9.24219 5.38281 9.24219C5.10236 9.24219 4.875 9.46954 4.875 9.75C4.875 10.0305 5.10236 10.2578 5.38281 10.2578Z" fill="#D8D8D8"/>
<path d="M7.5918 8.04883C7.87225 8.04883 8.09961 7.82147 8.09961 7.54102C8.09961 7.26056 7.87225 7.0332 7.5918 7.0332C7.31134 7.0332 7.08398 7.26056 7.08398 7.54102C7.08398 7.82147 7.31134 8.04883 7.5918 8.04883Z" fill="#D8D8D8"/>
<path d="M9.80078 8.04883C10.0812 8.04883 10.3086 7.82147 10.3086 7.54102C10.3086 7.26056 10.0812 7.0332 9.80078 7.0332C9.52032 7.0332 9.29297 7.26056 9.29297 7.54102C9.29297 7.82147 9.52032 8.04883 9.80078 8.04883Z" fill="#D8D8D8"/>
<path d="M7.5918 10.2578C7.87225 10.2578 8.09961 10.0305 8.09961 9.75C8.09961 9.46954 7.87225 9.24219 7.5918 9.24219C7.31134 9.24219 7.08398 9.46954 7.08398 9.75C7.08398 10.0305 7.31134 10.2578 7.5918 10.2578Z" fill="#D8D8D8"/>
</svg>
