<svg width="26" height="18" viewBox="0 0 26 18" fill="none" xmlns="http://www.w3.org/2000/svg">
<path fill-rule="evenodd" clip-rule="evenodd" d="M16.018 0.292444L16.074 0.272063H16.0383L16.018 0.292444ZM9.11211 0.270364C9.11211 0.270364 6.22647 0.161665 3.11323 2.42738C3.11323 2.42738 0 7.76726 0 14.3504C0 14.3504 1.72561 17.3057 6.45746 17.4178C6.45746 17.4178 7.14872 16.5125 7.84678 15.7159C5.18872 14.9211 4.15438 13.3313 4.15438 13.3313L5.04266 13.7831C5.21446 13.8529 5.38692 13.9238 5.56062 13.9952C8.01424 15.0044 10.7149 16.1152 15.2893 15.3729C15.3132 15.3676 15.3371 15.3623 15.361 15.357C16.3715 15.1331 17.3836 14.9089 18.3941 14.4642C18.5795 14.3705 18.7769 14.2769 18.9845 14.1783C19.5298 13.9195 20.146 13.627 20.8041 13.2125C20.8041 13.2125 19.7681 14.8022 16.9997 15.5971C17.5703 16.3885 18.372 17.2955 18.372 17.2955C22.2504 17.212 24.1859 15.2129 24.8156 14.5625C24.9545 14.4191 25.0298 14.3413 25.0485 14.364C25.0485 7.79104 21.9166 2.44097 21.9166 2.44097C19.1176 0.394351 16.502 0.302634 16.0078 0.300936L15.6919 0.61175C19.2671 1.63081 20.9978 3.22225 20.9978 3.22225C15.8107 0.667798 10.2076 0.521734 5.07663 2.53948C4.26987 2.88426 3.8079 3.11015 3.8079 3.11015C3.8079 3.11015 5.53521 1.40832 9.3448 0.499653L9.11211 0.270364ZM16.3798 12.3109C17.5874 12.3109 18.5708 11.2918 18.5708 10.035C18.5708 8.7866 17.5925 7.76754 16.3798 7.76754V7.77264C15.1773 7.77264 14.1922 8.7883 14.1888 10.0451C14.1888 11.2918 15.1722 12.3109 16.3798 12.3109ZM8.53643 12.3109C9.74402 12.3109 10.7274 11.2918 10.7274 10.035C10.7274 8.78664 9.75081 7.76758 8.54323 7.76758L8.53643 7.77268C7.32884 7.77268 6.34545 8.78834 6.34545 10.0452C6.34545 11.2918 7.32884 12.3109 8.53643 12.3109Z" fill="white"/>
</svg>
