<svg width="18" height="18" viewBox="0 0 18 18" fill="none" xmlns="http://www.w3.org/2000/svg">
<path fill-rule="evenodd" clip-rule="evenodd" d="M11.7476 0.165039H5.33981C2.39117 0.165039 0 2.5562 0 5.50485V11.9126C0 14.8613 2.39117 17.2524 5.33981 17.2524H11.7476C14.6962 17.2524 17.0874 14.8613 17.0874 11.9126V5.50485C17.0874 2.5562 14.6962 0.165039 11.7476 0.165039ZM15.4854 11.9126C15.4854 13.9738 13.8087 15.6505 11.7476 15.6505H5.33981C3.27864 15.6505 1.60194 13.9738 1.60194 11.9126V5.50485C1.60194 3.44368 3.27864 1.76698 5.33981 1.76698H11.7476C13.8087 1.76698 15.4854 3.44368 15.4854 5.50485V11.9126ZM8.54372 4.43689C6.18459 4.43689 4.27187 6.34961 4.27187 8.70874C4.27187 11.0679 6.18459 12.9806 8.54372 12.9806C10.9028 12.9806 12.8156 11.0679 12.8156 8.70874C12.8156 6.34961 10.9028 4.43689 8.54372 4.43689ZM8.54372 11.3786C7.07207 11.3786 5.87381 10.1804 5.87381 8.70874C5.87381 7.23602 7.07207 6.03883 8.54372 6.03883C10.0154 6.03883 11.2136 7.23602 11.2136 8.70874C11.2136 10.1804 10.0154 11.3786 8.54372 11.3786ZM13.7051 4.1165C13.7051 4.43087 13.4503 4.68572 13.1359 4.68572C12.8215 4.68572 12.5667 4.43087 12.5667 4.1165C12.5667 3.80212 12.8215 3.54727 13.1359 3.54727C13.4503 3.54727 13.7051 3.80212 13.7051 4.1165Z" fill="white"/>
</svg>
