<svg width="19" height="19" viewBox="0 0 19 19" fill="none" xmlns="http://www.w3.org/2000/svg">
<path d="M4.45007 17.8237C4.45007 18.1677 4.1723 18.4466 3.82962 18.4466H1.18852C0.845838 18.4466 0.568067 18.1677 0.568067 17.8237V6.7086C0.568067 6.36457 0.845838 6.08571 1.18852 6.08571H3.82962C4.1723 6.08571 4.45007 6.36457 4.45007 6.7086V17.8237ZM2.50907 5.03794C1.12336 5.03794 0 3.91015 0 2.51897C0 1.12779 1.12336 0 2.50907 0C3.89478 0 5.01814 1.12779 5.01814 2.51897C5.01814 3.91015 3.89484 5.03794 2.50907 5.03794ZM18.2524 17.8739C18.2524 18.1902 17.997 18.4466 17.682 18.4466H14.8478C14.5328 18.4466 14.2774 18.1902 14.2774 17.8739V12.6603C14.2774 11.8825 14.5046 9.2521 12.2528 9.2521C10.5062 9.2521 10.1519 11.0525 10.0808 11.8605V17.8739C10.0808 18.1902 9.82539 18.4466 9.51029 18.4466H6.76923C6.45419 18.4466 6.19876 18.1902 6.19876 17.8739V6.65843C6.19876 6.34215 6.45419 6.08571 6.76923 6.08571H9.51029C9.82533 6.08571 10.0808 6.34215 10.0808 6.65843V7.62815C10.7284 6.65236 11.6909 5.8992 13.7403 5.8992C18.2784 5.8992 18.2524 10.1557 18.2524 12.4944V17.8739Z" fill="white"/>
</svg>
