<svg width="9" height="13" viewBox="0 0 9 13" fill="none" xmlns="http://www.w3.org/2000/svg">
<path d="M4.43143 12.4177C4.08649 12.4177 3.74156 12.2107 3.53459 11.8658L0.637135 6.89871C-0.604633 4.76011 0.0162514 1.93164 2.08587 0.689871C2.77574 0.275948 3.60358 0 4.43143 0C6.01813 0 7.53585 0.827846 8.29471 2.27657C9.05356 3.65632 9.12255 5.31201 8.29471 6.69175C8.29471 6.69175 8.29471 6.69175 8.29471 6.76074L5.32826 11.9348C5.1213 12.2107 4.77636 12.4177 4.43143 12.4177ZM4.43143 0.689871C3.74156 0.689871 3.05168 0.896833 2.4308 1.24177C0.706123 2.27657 0.154225 4.69112 1.25802 6.48479L4.15548 11.5208C4.22447 11.7278 4.36244 11.7278 4.43143 11.7278C4.50041 11.7278 4.63839 11.7278 4.70738 11.5208L7.67382 6.4158C7.67382 6.4158 7.67382 6.4158 7.67382 6.34681C8.36369 5.17403 8.36369 3.7253 7.67382 2.55252C7.05294 1.44873 5.81117 0.689871 4.43143 0.689871Z" fill="white"/>
<path d="M4.43073 6.20888C3.46491 6.20888 2.70605 5.45002 2.70605 4.4842C2.70605 3.51838 3.46491 2.75952 4.43073 2.75952C5.39655 2.75952 6.15541 3.51838 6.15541 4.4842C6.15541 5.45002 5.39655 6.20888 4.43073 6.20888ZM4.43073 3.44939C3.87884 3.44939 3.39593 3.9323 3.39593 4.4842C3.39593 5.0361 3.87884 5.51901 4.43073 5.51901C4.98263 5.51901 5.46554 5.0361 5.46554 4.4842C5.46554 3.9323 4.98263 3.44939 4.43073 3.44939Z" fill="white"/>
</svg>
