<svg width="13" height="19" viewBox="0 0 13 19" fill="none" xmlns="http://www.w3.org/2000/svg">
<path d="M8.79961 12.4375C8.69961 12.4375 8.69961 12.4375 8.59961 12.4375L6.39961 11.5375L4.19961 12.4375C3.99961 12.5375 3.69961 12.4375 3.59961 12.1375L2.59961 10.0375L0.49961 9.0375C0.29961 8.9375 0.0996093 8.6375 0.199609 8.4375L0.99961 6.2375L0.199609 4.0375C0.0996093 3.8375 0.19961 3.5375 0.49961 3.4375L2.59961 2.4375L3.59961 0.337499C3.69961 0.137499 3.99961 -0.0624999 4.19961 0.0375001L6.39961 0.837499L8.59961 0.0375001C8.79961 -0.0624999 9.09961 0.0374993 9.19961 0.337499L10.1996 2.4375L12.2996 3.4375C12.4996 3.5375 12.6996 3.8375 12.5996 4.0375L11.7996 6.2375L12.5996 8.4375C12.6996 8.6375 12.5996 8.9375 12.2996 9.0375L10.1996 10.0375L9.19961 12.1375C9.09961 12.3375 8.89961 12.4375 8.79961 12.4375ZM6.39961 10.5375C6.49961 10.5375 6.49961 10.5375 6.59961 10.5375L8.49961 11.2375L9.39961 9.4375C9.39961 9.3375 9.49961 9.2375 9.59961 9.2375L11.4996 8.3375L10.7996 6.4375C10.7996 6.3375 10.7996 6.2375 10.7996 6.1375L11.4996 4.2375L9.59961 3.3375C9.49961 3.3375 9.39961 3.2375 9.39961 3.1375L8.49961 1.2375L6.59961 1.9375C6.49961 1.9375 6.39961 1.9375 6.29961 1.9375L4.39961 1.2375L3.39961 3.0375C3.39961 3.1375 3.29961 3.2375 3.19961 3.2375L1.29961 4.1375L1.99961 6.0375C1.99961 6.1375 1.99961 6.2375 1.99961 6.3375L1.29961 8.2375L3.19961 9.1375C3.29961 9.1375 3.39961 9.2375 3.39961 9.3375L4.29961 11.2375L6.19961 10.5375C6.29961 10.5375 6.29961 10.5375 6.39961 10.5375Z" fill="white"/>
<path d="M3.4 10.0375L1.2 16.0375L3.1 15.7374C3.3 15.7374 3.5 15.7375 3.6 15.9375L4.8 17.4375L7 11.4375L7.9 11.7374L5.4 18.5375C5.3 18.7375 5.2 18.8375 5 18.8375H4.9C4.7 18.8375 4.6 18.7375 4.5 18.6375L3 16.7374L0.599999 17.1375C0.399999 17.1375 0.199999 17.1375 0.0999994 16.9375C-5.73695e-07 16.8375 0 16.6375 0 16.4375L2.5 9.63745L3.4 10.0375Z" fill="white"/>
<path d="M10.3004 9.73755L12.9004 16.5375C13.0004 16.7375 12.9004 16.9376 12.8004 17.0375C12.7004 17.1375 12.5004 17.2375 12.3004 17.2375L9.90039 16.8375L8.40039 18.7375C8.30039 18.8375 8.20039 18.9375 8.00039 18.9375H7.90039C7.70039 18.9375 7.60039 18.8376 7.50039 18.6376L5.90039 14.4375L6.80039 14.0375L8.00039 17.3375L9.20039 15.8375C9.30039 15.7375 9.50039 15.6376 9.70039 15.6376L11.6004 15.9375L9.40039 9.93755L10.3004 9.73755Z" fill="white"/>
</svg>
