<svg width="21" height="18" viewBox="0 0 21 18" fill="none" xmlns="http://www.w3.org/2000/svg">
<path d="M19.2976 2.68731L20.9709 1.0959V0.747559H15.1742L11.0429 10.9701L6.34282 0.747559H0.264757V1.0959L2.21942 3.43524C2.4099 3.60811 2.50951 3.8609 2.48417 4.11542V13.3086C2.54447 13.6396 2.43612 13.9801 2.20194 14.2207L0 16.8737V17.2177H6.2432V16.8693L4.04126 14.2207C3.80272 13.9792 3.69 13.6448 3.73806 13.3086V5.35676L9.21845 17.222H9.85544L14.5678 5.35676V14.8088C14.5678 15.0581 14.5678 15.1094 14.4035 15.2727L12.7083 16.9032V17.2524H20.9324V16.9041L19.2984 15.3135C19.1551 15.2058 19.0809 15.0251 19.1115 14.8497V3.15119C19.0809 2.97485 19.1543 2.79416 19.2976 2.68731Z" fill="white"/>
</svg>
