<svg width="13" height="12" viewBox="0 0 13 12" fill="none" xmlns="http://www.w3.org/2000/svg">
<path fill-rule="evenodd" clip-rule="evenodd" d="M7.30572 -2.05322e-07C4.7436 -3.17315e-07 2.6085 2.1351 2.6085 4.69721C2.6085 5.80729 3.0093 6.83721 3.67198 7.64805L0.131955 11.1881C0.0465512 11.2735 0.0465503 11.4443 0.0465502 11.5297C0.0465502 11.6151 0.0465512 11.7859 0.131955 11.8713C0.302762 12.0421 0.558974 12.0421 0.729782 11.8713L4.30852 8.29257C5.12628 8.97812 6.17437 9.39443 7.30572 9.39443C9.86783 9.39443 12.0029 7.25933 12.0029 4.69721C12.0029 2.1351 9.86783 -9.33281e-08 7.30572 -2.05322e-07ZM7.30572 0.854039C9.44081 0.854039 11.1489 2.56212 11.1489 4.69721C11.1489 6.83231 9.44081 8.54039 7.30572 8.54039C5.17062 8.54039 3.46254 6.83231 3.46254 4.69721C3.46254 2.56212 5.17062 0.854039 7.30572 0.854039Z" fill="#D7D7D7"/>
</svg>
