<svg width="16" height="18" viewBox="0 0 16 18" fill="none" xmlns="http://www.w3.org/2000/svg">
<path d="M15.3316 4.73506C14.3336 4.73506 13.4128 4.40415 12.6734 3.84591C11.8253 3.20596 11.216 2.26724 11.0009 1.18529C10.9476 0.917958 10.9189 0.642085 10.9162 0.359375H8.06534V8.1563L8.06192 12.427C8.06192 13.5688 7.31908 14.5369 6.28934 14.8774C5.99049 14.9762 5.66774 15.023 5.33166 15.0046C4.90269 14.981 4.5007 14.8514 4.15131 14.6422C3.40778 14.1971 2.90367 13.3897 2.89001 12.466C2.86849 11.0224 4.0345 9.84538 5.47579 9.84538C5.7603 9.84538 6.03353 9.89187 6.28934 9.97631V7.84521V7.07913C6.01952 7.03913 5.74493 7.01828 5.46726 7.01828C3.88969 7.01828 2.41424 7.67463 1.35957 8.85709C0.562422 9.75069 0.0842676 10.8908 0.0104953 12.0862C-0.0861601 13.6567 0.487966 15.1495 1.60138 16.251C1.76498 16.4127 1.93677 16.5627 2.11642 16.7012C3.07102 17.4365 4.23806 17.8351 5.46726 17.8351C5.74493 17.8351 6.01952 17.8146 6.28934 17.7746C7.43759 17.6044 8.49704 17.0782 9.33313 16.251C10.3605 15.2346 10.9281 13.8854 10.9343 12.4493L10.9196 6.07169C11.4097 6.45012 11.9456 6.76326 12.5207 7.00631C13.4152 7.38406 14.3636 7.57549 15.3398 7.57515V5.5032V4.73438C15.3404 4.73506 15.3323 4.73506 15.3316 4.73506Z" fill="white"/>
</svg>
