<svg width="20" height="17" viewBox="0 0 20 17" fill="none" xmlns="http://www.w3.org/2000/svg">
<path d="M19.1087 2.01059C18.6772 2.20148 18.2294 2.35208 17.7698 2.46111C18.2762 1.98097 18.6569 1.38043 18.8717 0.710115C18.933 0.518752 18.7247 0.353275 18.5515 0.455736C17.9122 0.834116 17.2236 1.11797 16.5047 1.29951C16.463 1.31004 16.42 1.31538 16.3768 1.31538C16.2458 1.31538 16.1185 1.26687 16.0184 1.17882C15.2536 0.506186 14.2698 0.135742 13.2485 0.135742C12.8066 0.135742 12.3604 0.204474 11.9223 0.340049C10.5649 0.760141 9.51758 1.87738 9.18898 3.2558C9.0657 3.77282 9.03233 4.29032 9.08971 4.79388C9.09629 4.85175 9.06888 4.89214 9.05197 4.91108C9.02229 4.94429 8.9802 4.96333 8.93651 4.96333C8.93163 4.96333 8.92661 4.96309 8.92164 4.96262C5.95038 4.68717 3.27102 3.25882 1.37711 0.940734C1.28053 0.822496 1.09533 0.836998 1.01835 0.968746C0.647477 1.60363 0.451482 2.32978 0.451482 3.06869C0.451482 4.20109 0.907431 5.26825 1.69941 6.04622C1.36636 5.96743 1.04401 5.84334 0.744575 5.67739C0.59971 5.59708 0.421468 5.7003 0.419432 5.86563C0.398696 7.54789 1.38577 9.04478 2.86445 9.71883C2.83467 9.71954 2.80489 9.71987 2.77507 9.71987C2.54068 9.71987 2.30335 9.69729 2.06977 9.65274C1.90663 9.62166 1.76957 9.77608 1.82023 9.93391C2.30018 11.4291 3.59034 12.5311 5.13425 12.7813C3.8529 13.6396 2.36073 14.0924 0.807682 14.0924L0.323517 14.0921C0.174343 14.0921 0.0481774 14.1891 0.0101619 14.3333C-0.0272855 14.4753 0.0416916 14.6251 0.168899 14.6989C1.91894 15.7151 3.9151 16.2522 5.94247 16.2522C7.71708 16.2522 9.37707 15.9008 10.8764 15.2078C12.2509 14.5725 13.4655 13.6644 14.4864 12.5086C15.4375 11.4319 16.1813 10.189 16.6969 8.8145C17.1885 7.50424 17.4483 6.10617 17.4483 4.7714V4.70782C17.4482 4.49349 17.5454 4.29183 17.7149 4.15456C18.358 3.63352 18.9181 3.02017 19.3794 2.33158C19.5012 2.14976 19.3091 1.92188 19.1087 2.01059Z" fill="white"/>
</svg>
